<svg width="52" height="52" viewBox="0 0 52 52" fill="none" xmlns="http://www.w3.org/2000/svg">
<rect x="13" y="13" width="26" height="23.8333" fill="white"/>
<path d="M22.9667 29.9L18.3083 25.2417C17.9111 24.8444 17.4056 24.6458 16.7917 24.6458C16.1778 24.6458 15.6722 24.8444 15.275 25.2417C14.8778 25.6389 14.6792 26.1444 14.6792 26.7583C14.6792 27.3722 14.8778 27.8778 15.275 28.275L21.45 34.45C21.8833 34.8833 22.3889 35.1 22.9667 35.1C23.5445 35.1 24.05 34.8833 24.4833 34.45L36.725 22.2083C37.1222 21.8111 37.3208 21.3056 37.3208 20.6917C37.3208 20.0778 37.1222 19.5722 36.725 19.175C36.3278 18.7778 35.8222 18.5792 35.2083 18.5792C34.5945 18.5792 34.0889 18.7778 33.6917 19.175L22.9667 29.9ZM26 47.6667C23.0028 47.6667 20.1861 47.0976 17.55 45.9593C14.9139 44.8211 12.6208 43.2777 10.6708 41.3292C8.72084 39.3792 7.17745 37.0861 6.04068 34.45C4.9039 31.8139 4.33479 28.9972 4.33334 26C4.33334 23.0028 4.90245 20.1861 6.04068 17.55C7.1789 14.9139 8.72229 12.6208 10.6708 10.6708C12.6208 8.72084 14.9139 7.17745 17.55 6.04067C20.1861 4.90389 23.0028 4.33478 26 4.33334C28.9972 4.33334 31.8139 4.90245 34.45 6.04067C37.0861 7.17889 39.3792 8.72228 41.3292 10.6708C43.2792 12.6208 44.8233 14.9139 45.9615 17.55C47.0997 20.1861 47.6681 23.0028 47.6667 26C47.6667 28.9972 47.0976 31.8139 45.9593 34.45C44.8211 37.0861 43.2777 39.3792 41.3292 41.3292C39.3792 43.2792 37.0861 44.8233 34.45 45.9615C31.8139 47.0997 28.9972 47.6681 26 47.6667Z" fill="url(#paint0_linear_1306_18)"/>
<defs>
<linearGradient id="paint0_linear_1306_18" x1="26" y1="4.33334" x2="26" y2="47.6667" gradientUnits="userSpaceOnUse">
<stop offset="0.463542" stop-color="#3E92D0"/>
<stop offset="1" stop-color="#2F6F9E"/>
</linearGradient>
</defs>
</svg>
