<svg width="45" height="52" viewBox="0 0 45 52" fill="none" xmlns="http://www.w3.org/2000/svg">
<path d="M6.91219 51.905C6.56552 51.905 6.34885 51.84 6.26219 51.71L5.09219 50.15C5.26552 49.63 5.35219 49.24 5.35219 48.98C5.35219 48.8067 5.30885 48.72 5.22219 48.72C4.96219 48.72 4.70219 48.8283 4.44219 49.045C4.13885 49.2617 3.83552 49.37 3.53219 49.37C3.35885 49.3267 3.27219 49.2183 3.27219 49.045L3.40219 48.2C3.40219 48.1133 3.35885 48.07 3.27219 48.07L2.88219 48.2L2.36219 48.33C2.27552 48.2433 2.23219 48.1567 2.23219 48.07L2.36219 47.03C2.36219 46.77 2.29719 46.4883 2.16719 46.185C2.03719 45.8817 1.92885 45.73 1.84219 45.73L0.932188 45.34C1.06219 45.08 1.19219 44.7983 1.32219 44.495C1.45219 44.235 1.53885 43.9533 1.58219 43.65C1.58219 43.4333 1.53885 43.13 1.45219 42.74C1.40885 42.35 1.27885 41.8733 1.06219 41.31C1.71219 39.9233 2.99052 38.06 4.89719 35.72C6.80385 33.38 9.38219 30.4767 12.6322 27.01C10.4222 22.46 8.21219 17.26 6.00219 11.41L5.67719 11.02C5.54719 10.8467 5.39552 10.5217 5.22219 10.045C5.04885 9.525 4.89719 9.02666 4.76719 8.55C4.63719 8.03 4.57219 7.705 4.57219 7.575C4.57219 7.445 4.61552 7.38 4.70219 7.38C4.96219 7.38 5.26552 7.25 5.61219 6.99C6.00219 6.68666 6.21885 6.405 6.26219 6.145C6.34885 5.92833 6.54385 5.64666 6.84719 5.3C7.19385 4.95333 7.43219 4.78 7.56219 4.78C7.60552 4.78 7.80052 4.88833 8.14719 5.105C8.27719 5.14833 8.38552 5.21333 8.47219 5.3C8.60219 5.34333 8.73219 5.365 8.86219 5.365L9.12219 5.3C9.51219 5.12666 9.77219 4.56333 9.90219 3.61C10.1622 3.95666 10.4005 4.13 10.6172 4.13L10.8122 4C10.9855 3.74 11.0939 3.52333 11.1372 3.35C11.2672 3.13333 11.3972 3.025 11.5272 3.025L11.7222 3.09C11.9822 3.35 12.4589 3.935 13.1522 4.845C13.8455 5.755 14.5822 6.77333 15.3622 7.9C16.1855 9.02667 16.8355 10.0233 17.3122 10.89C17.7022 11.5833 18.2439 12.4717 18.9372 13.555C19.6305 14.595 20.4755 15.83 21.4722 17.26C24.2022 14.2267 26.3905 11.8433 28.0372 10.11C29.6839 8.33333 30.7889 7.20666 31.3522 6.73C31.9155 6.25333 32.4355 5.77667 32.9122 5.3C33.3889 4.82333 33.8439 4.36833 34.2772 3.935C35.1005 3.025 35.7722 2.35333 36.2922 1.92L38.6322 0.0999983L38.8272 0.164997C39.4772 0.59833 39.8455 0.988331 39.9322 1.335L40.0622 1.79L40.9722 2.31L40.8422 3.025C40.8422 3.19833 40.9505 3.545 41.1672 4.065C41.3839 4.54167 41.5789 4.82333 41.7522 4.91C41.9689 4.91 42.1639 4.845 42.3372 4.715C42.5539 4.585 42.8572 4.52 43.2472 4.52H43.5722L43.3122 5.56L43.9622 5.69L44.0922 6.795C44.0922 7.35833 43.8322 7.81333 43.3122 8.16L43.8322 8.94L36.6822 15.895C35.6855 16.8917 34.4072 18.235 32.8472 19.925C31.3305 21.5717 29.5755 23.5867 27.5822 25.97C30.1389 29.3933 32.1539 32.08 33.6272 34.03C35.1439 35.9367 36.1189 37.1283 36.5522 37.605C37.4189 38.5583 37.8522 39.23 37.8522 39.62C37.8522 39.9667 37.7222 40.4433 37.4622 41.05C37.2455 41.6567 36.9855 42.1983 36.6822 42.675C36.3789 43.1517 36.1189 43.39 35.9022 43.39L33.9522 43.52L34.4722 45.34L34.2122 45.535C33.9522 45.665 33.7572 45.73 33.6272 45.73H33.3022C32.9122 45.73 32.6522 45.9467 32.5222 46.38C32.3489 46.8567 32.0239 47.095 31.5472 47.095C31.2872 47.095 31.0489 46.9867 30.8322 46.77C30.6155 46.5533 30.2905 46.445 29.8572 46.445C29.6405 46.445 29.4889 46.51 29.4022 46.64L29.2072 47.095C29.1639 47.3983 29.0989 47.6583 29.0122 47.875C28.9689 48.0917 28.9255 48.2433 28.8822 48.33C28.7955 48.5467 28.6222 48.655 28.3622 48.655H28.1672C27.9939 48.655 27.7772 48.6117 27.5172 48.525C27.3005 48.4383 27.0189 48.33 26.6722 48.2C25.2855 46.7267 22.5989 43 18.6122 37.02L15.5572 40.92C14.0839 42.7833 12.9355 44.2567 12.1122 45.34C11.3322 46.4667 10.8555 47.16 10.6822 47.42L10.0322 48.59C8.81885 50.7567 8.12552 51.84 7.95219 51.84L6.91219 51.905Z" fill="#A7A9AB"/>
</svg>
