<svg width="22" height="35" viewBox="0 0 22 35" fill="none" xmlns="http://www.w3.org/2000/svg">
<path d="M10.9081 0.654997C14.1181 0.654997 16.6831 1.495 18.6031 3.175C20.5531 4.855 21.5281 7.225 21.5281 10.285C21.5281 13.105 20.5981 15.31 18.7381 16.9C16.9081 18.46 14.4781 19.255 11.4481 19.285L11.2231 22.66H4.47307L4.24807 14.29H6.94807C9.25807 14.29 11.0131 14.005 12.2131 13.435C13.4431 12.865 14.0581 11.83 14.0581 10.33C14.0581 9.28 13.7731 8.455 13.2031 7.855C12.6331 7.255 11.8381 6.955 10.8181 6.955C9.73807 6.955 8.89807 7.27 8.29807 7.9C7.69807 8.5 7.39807 9.325 7.39807 10.375H0.153066C0.0930664 8.545 0.468066 6.895 1.27807 5.425C2.11807 3.955 3.34807 2.8 4.96807 1.96C6.61807 1.09 8.59807 0.654997 10.9081 0.654997ZM7.93807 34.36C6.58807 34.36 5.47807 33.97 4.60807 33.19C3.76807 32.38 3.34807 31.39 3.34807 30.22C3.34807 29.02 3.76807 28.015 4.60807 27.205C5.47807 26.395 6.58807 25.99 7.93807 25.99C9.25807 25.99 10.3381 26.395 11.1781 27.205C12.0481 28.015 12.4831 29.02 12.4831 30.22C12.4831 31.39 12.0481 32.38 11.1781 33.19C10.3381 33.97 9.25807 34.36 7.93807 34.36Z" fill="black"/>
</svg>
