<svg width="48" height="51" viewBox="0 0 48 51" fill="none" xmlns="http://www.w3.org/2000/svg">
<path d="M10.6392 50.86C10.6392 50.275 10.5742 50.015 10.3142 50.015L8.8192 50.73C8.8192 50.405 8.6242 50.21 8.2992 50.08L7.7792 50.015C7.3242 50.015 7.1292 50.08 6.4792 50.47C6.2842 50.08 6.0242 49.625 5.8292 49.235C4.1392 45.985 2.3842 41.11 1.6042 38.965C1.2142 37.86 0.824199 35.585 0.369199 32.14C0.889199 32.465 1.2792 32.595 1.4742 32.595C1.7342 32.595 2.0592 32.14 2.3192 31.23C2.4492 31.425 2.7092 31.49 3.0342 31.49C3.2292 31.49 3.4892 31.425 3.6192 31.23L4.6592 29.67L5.8292 30.06H5.8942C6.0242 30.06 6.2192 29.865 6.5442 29.67C6.8692 29.475 7.1292 29.345 7.3242 29.345L7.5192 29.41C8.5592 29.93 9.2742 30.84 9.5992 32.27C10.3792 35.585 11.0942 37.21 11.9392 37.21C12.6542 37.21 13.6292 36.365 14.6692 34.74C15.7092 33.115 16.7492 30.905 17.9192 28.24C17.9842 28.76 18.0492 29.02 18.1792 29.02C18.5692 29.02 19.5442 26.745 21.9492 22.91C25.5242 17.125 34.3642 6.01 36.6392 4.45C38.3292 3.28 39.6292 2.175 40.5392 1.2C40.4092 1.85 40.2792 2.305 40.2792 2.5C40.2792 2.695 40.4092 2.76 40.5392 2.76L42.3592 1.85V2.11C42.3592 2.435 42.4242 2.63 42.6192 2.63C42.8792 2.63 43.9192 1.59 44.0492 1.2L43.9192 2.11L46.1292 0.809999L45.6092 1.98C46.2592 1.525 46.7792 1.265 47.1042 1.265C47.4292 1.265 47.6242 1.785 47.6242 2.11C47.6242 2.63 47.1692 3.345 46.4542 4.255C45.6742 5.295 43.7242 7.31 37.8742 14.005C35.3392 16.865 24.0942 32.14 21.9492 35.78L17.9192 42.605C16.1642 45.53 15.0592 47.415 14.4742 48.13C13.8892 48.845 13.1742 49.56 12.3292 50.21L11.7442 49.885L11.2242 50.21L10.6392 50.86Z" fill="#F87831"/>
</svg>
